<mxfile host="app.diagrams.net" modified="2023-05-24T01:31:17.486Z" agent="Mozilla/5.0 (Windows NT 10.0; Win64; x64) AppleWebKit/537.36 (KHTML, like Gecko) Chrome/113.0.0.0 Safari/537.36" etag="u5nGvOVTc0R5kxsRAxE8" version="21.3.2" type="github">
  <diagram id="wFE0QG_FPsp0jaGvCLVb" name="Page-1">
    <mxGraphModel dx="662" dy="436" grid="1" gridSize="10" guides="1" tooltips="1" connect="1" arrows="1" fold="1" page="1" pageScale="1" pageWidth="850" pageHeight="1100" math="0" shadow="0">
      <root>
        <mxCell id="0" />
        <mxCell id="1" parent="0" />
        <mxCell id="-vJMN9iRG7z3Wq88sYDA-5" value="" style="group" vertex="1" connectable="0" parent="1">
          <mxGeometry x="140" y="230" width="120" height="60" as="geometry" />
        </mxCell>
        <mxCell id="-vJMN9iRG7z3Wq88sYDA-2" value="" style="verticalLabelPosition=bottom;verticalAlign=top;html=1;shape=mxgraph.basic.rect;fillColor2=none;strokeWidth=1;size=20;indent=5;" vertex="1" parent="-vJMN9iRG7z3Wq88sYDA-5">
          <mxGeometry width="120" height="60" as="geometry" />
        </mxCell>
        <mxCell id="-vJMN9iRG7z3Wq88sYDA-4" value="注册登录" style="text;html=1;align=center;verticalAlign=middle;resizable=0;points=[];autosize=1;strokeColor=none;fillColor=none;" vertex="1" parent="-vJMN9iRG7z3Wq88sYDA-5">
          <mxGeometry x="25" y="15" width="70" height="30" as="geometry" />
        </mxCell>
        <mxCell id="-vJMN9iRG7z3Wq88sYDA-9" value="" style="group" vertex="1" connectable="0" parent="1">
          <mxGeometry x="320" y="110" width="120" height="60" as="geometry" />
        </mxCell>
        <mxCell id="-vJMN9iRG7z3Wq88sYDA-1" value="" style="verticalLabelPosition=bottom;verticalAlign=top;html=1;shape=mxgraph.basic.rect;fillColor2=none;strokeWidth=1;size=20;indent=5;" vertex="1" parent="-vJMN9iRG7z3Wq88sYDA-9">
          <mxGeometry width="120" height="60" as="geometry" />
        </mxCell>
        <mxCell id="-vJMN9iRG7z3Wq88sYDA-3" value="用户模块" style="text;html=1;align=center;verticalAlign=middle;resizable=0;points=[];autosize=1;strokeColor=none;fillColor=none;" vertex="1" parent="-vJMN9iRG7z3Wq88sYDA-9">
          <mxGeometry x="25" y="15" width="70" height="30" as="geometry" />
        </mxCell>
        <mxCell id="-vJMN9iRG7z3Wq88sYDA-14" value="" style="group" vertex="1" connectable="0" parent="1">
          <mxGeometry x="320" y="230" width="120" height="60" as="geometry" />
        </mxCell>
        <mxCell id="-vJMN9iRG7z3Wq88sYDA-10" value="" style="verticalLabelPosition=bottom;verticalAlign=top;html=1;shape=mxgraph.basic.rect;fillColor2=none;strokeWidth=1;size=20;indent=5;" vertex="1" parent="-vJMN9iRG7z3Wq88sYDA-14">
          <mxGeometry width="120" height="60" as="geometry" />
        </mxCell>
        <mxCell id="-vJMN9iRG7z3Wq88sYDA-11" value="用户资料编辑" style="text;html=1;align=center;verticalAlign=middle;resizable=0;points=[];autosize=1;strokeColor=none;fillColor=none;" vertex="1" parent="-vJMN9iRG7z3Wq88sYDA-14">
          <mxGeometry x="10" y="15" width="100" height="30" as="geometry" />
        </mxCell>
        <mxCell id="-vJMN9iRG7z3Wq88sYDA-15" value="" style="group" vertex="1" connectable="0" parent="1">
          <mxGeometry x="490" y="230" width="120" height="60" as="geometry" />
        </mxCell>
        <mxCell id="-vJMN9iRG7z3Wq88sYDA-12" value="" style="verticalLabelPosition=bottom;verticalAlign=top;html=1;shape=mxgraph.basic.rect;fillColor2=none;strokeWidth=1;size=20;indent=5;" vertex="1" parent="-vJMN9iRG7z3Wq88sYDA-15">
          <mxGeometry width="120" height="60" as="geometry" />
        </mxCell>
        <mxCell id="-vJMN9iRG7z3Wq88sYDA-13" value="我的XXX" style="text;html=1;align=center;verticalAlign=middle;resizable=0;points=[];autosize=1;strokeColor=none;fillColor=none;" vertex="1" parent="-vJMN9iRG7z3Wq88sYDA-15">
          <mxGeometry x="25" y="15" width="70" height="30" as="geometry" />
        </mxCell>
        <mxCell id="-vJMN9iRG7z3Wq88sYDA-17" value="" style="endArrow=classic;html=1;rounded=0;entryX=0.546;entryY=-0.083;entryDx=0;entryDy=0;entryPerimeter=0;" edge="1" parent="1" target="-vJMN9iRG7z3Wq88sYDA-2">
          <mxGeometry width="50" height="50" relative="1" as="geometry">
            <mxPoint x="380" y="170" as="sourcePoint" />
            <mxPoint x="210" y="220" as="targetPoint" />
          </mxGeometry>
        </mxCell>
        <mxCell id="-vJMN9iRG7z3Wq88sYDA-21" value="" style="endArrow=classic;html=1;rounded=0;entryX=0.574;entryY=-0.065;entryDx=0;entryDy=0;entryPerimeter=0;" edge="1" parent="1" target="-vJMN9iRG7z3Wq88sYDA-12">
          <mxGeometry width="50" height="50" relative="1" as="geometry">
            <mxPoint x="380" y="170" as="sourcePoint" />
            <mxPoint x="550" y="220" as="targetPoint" />
          </mxGeometry>
        </mxCell>
        <mxCell id="-vJMN9iRG7z3Wq88sYDA-22" value="" style="endArrow=classic;html=1;rounded=0;" edge="1" parent="1">
          <mxGeometry width="50" height="50" relative="1" as="geometry">
            <mxPoint x="380" y="170" as="sourcePoint" />
            <mxPoint x="381" y="230" as="targetPoint" />
          </mxGeometry>
        </mxCell>
      </root>
    </mxGraphModel>
  </diagram>
</mxfile>
